<?xml version="1.0" standalone="no"?><!DOCTYPE svg PUBLIC "-//W3C//DTD SVG 1.1//EN" "http://www.w3.org/Graphics/SVG/1.1/DTD/svg11.dtd"><svg t="1623393404235" class="icon" viewBox="0 0 1024 1024" version="1.1" xmlns="http://www.w3.org/2000/svg" p-id="3202" xmlns:xlink="http://www.w3.org/1999/xlink" width="200" height="200"><defs><style type="text/css"></style></defs><path d="M866 450.082c0-16.569 13.431-30 30-30 16.569 0 30 13.431 30 30V837c0 49.706-40.294 90-90 90H188c-49.706 0-90-40.294-90-90V218c0-49.706 40.294-90 90-90h422.5c16.569 0 30 13.431 30 30 0 16.569-13.431 30-30 30H188c-16.569 0-30 13.431-30 30v619c0 16.569 13.431 30 30 30h648c16.569 0 30-13.431 30-30V450.082z" p-id="3203"></path><path d="M507.567 559.689c-11.716 11.715-30.71 11.715-42.427 0-11.715-11.716-11.715-30.711 0-42.427L875.262 107.14c11.716-11.715 30.711-11.715 42.427 0 11.715 11.716 11.715 30.711 0 42.427L507.567 559.689z" p-id="3204"></path></svg>