<?xml version="1.0" standalone="no"?><!DOCTYPE svg PUBLIC "-//W3C//DTD SVG 1.1//EN" "http://www.w3.org/Graphics/SVG/1.1/DTD/svg11.dtd"><svg t="1623123524531" class="icon" viewBox="0 0 1024 1024" version="1.1" xmlns="http://www.w3.org/2000/svg" p-id="4751" xmlns:xlink="http://www.w3.org/1999/xlink" width="200" height="200"><defs><style type="text/css"></style></defs><path d="M204.8 307.2h256c56.32 0 102.4 46.08 102.4 102.4v512c0 56.32-46.08 102.4-102.4 102.4H204.8c-56.32 0-102.4-46.08-102.4-102.4V409.6c0-56.32 46.08-102.4 102.4-102.4z" fill="#5AC8FA" p-id="4752"></path><path d="M870.4 358.4h-204.8c-56.32 0-102.4-46.08-102.4-102.4V51.2H204.8c-30.72 0-51.2 20.48-51.2 51.2v819.2c0 30.72 20.48 51.2 51.2 51.2h614.4c30.72 0 51.2-20.48 51.2-51.2V358.4z m-20.48-51.2L614.4 71.68V256c0 30.72 20.48 51.2 51.2 51.2h184.32z m-276.48-307.2c25.6 0 51.2 10.24 71.68 30.72l245.76 245.76c20.48 20.48 30.72 46.08 30.72 71.68V921.6c0 56.32-46.08 102.4-102.4 102.4H204.8c-56.32 0-102.4-46.08-102.4-102.4V102.4c0-56.32 46.08-102.4 102.4-102.4h368.64z" fill="" p-id="4753"></path></svg>